<?xml version="1.0" encoding="utf-8"?>
<!-- Generator: Adobe Illustrator 23.0.0, SVG Export Plug-In . SVG Version: 6.00 Build 0)  -->
<svg version="1.1" id="WhatsApp_logo" xmlns="http://www.w3.org/2000/svg" xmlns:xlink="http://www.w3.org/1999/xlink" x="0px"
	 y="0px" viewBox="0 0 121.3 121.3" style="enable-background:new 0 0 121.3 121.3;" xml:space="preserve">
<style type="text/css">
	.st0{fill:#EE5E23;}
	.st1{fill:#FFFFFF;}
</style>
<g>
	<rect x="0" y="0" class="st0" width="121.3" height="121.3"/>
	<path class="st1" d="M58.4,40.7C58,38,57.1,35.4,56.9,35s-1-3.1-2.3-5.4c0.4,2.7,1.3,5.3,1.5,5.7C56.2,35.7,57.1,38.4,58.4,40.7
		 M46.4,40.4c-0.4,0-0.7-0.3-0.7-0.7S46,39,46.4,39s0.7,0.3,0.7,0.7C47,40.1,46.7,40.4,46.4,40.4 M49,61.7c-0.4,0-0.9,0-1.1-0.4
		c-0.1-0.1-0.1-0.3-0.2-0.4c0-0.1,0-0.1,0-0.2c-1-5.9-1-11.9-0.1-17.8c0.1-0.3,0.1-0.7,0.4-0.9c0.2-0.2,0.5-0.2,0.8-0.2
		c4-0.1,8.1,0.6,11.9,2c-3.1-2-6.6-3.2-10.2-3.4c-0.7,0-1.5-0.1-2-0.7c-0.2-0.3-0.3-0.7-0.4-1.1c-0.3-1-1.1-1.8-2-2.1
		c1.1,0.2,2.1,1,2.6,2.1c0.1,0.2,0.4,0.3,0.6,0.2c0.8-0.4,1.8-0.5,2.7-0.7c1-0.3,2.1-1.2,2-2.3l-4.2,1.5l2-1.3l0,0
		c0.1-0.1,0.2-0.1,0.3-0.2c0.7-0.5,1.3-1.5,0.8-2.3l-3.8,2.6l1.7-1.8l0,0c0.1-0.1,0.1-0.1,0.2-0.2c0.6-0.7,0.9-1.8,0.3-2.5l-3,3.5
		l1.2-2.2l0,0c0-0.1,0.1-0.1,0.1-0.2c0.4-0.8,0.4-2-0.3-2.5l-2.2,4.2l0,0l0.6-2.2l0,0c0.1-0.2,0.1-0.4,0.1-0.5
		c0.2-0.9,0-2.1-0.9-2.4l-1.1,4.6v-2.5l0,0c0-0.1,0-0.1,0-0.2c0-0.9-0.5-2-1.4-2V34l-0.5-2.3v0.1c0-0.1,0-0.3-0.1-0.4
		c-0.2-0.9-1-1.8-1.8-1.6l1.1,4.6l-1-2.1v0.1C42,32.3,42,32.1,41.9,32c-0.4-0.8-1.4-1.5-2.1-1.1l2.2,4.2l-1.2-1.4l0,0
		c-0.2-0.2-0.3-0.4-0.5-0.6c-0.6-0.7-1.7-1.1-2.3-0.5l3.1,3.5l-1.8-1.3l0,0c-0.1-0.1-0.2-0.2-0.4-0.3c-0.7-0.5-1.9-0.6-2.3,0.2
		l3.8,2.6L38,36.4l0,0h-0.1c-0.8-0.3-1.9-0.1-2.3,0.7c1.2,0.7,2.6,0.8,3.9,1.3c1.5,0.6,3,2,2.5,3.8c-0.2,0.7-0.6,1.2-1.2,1.6
		c-1.3,0.9-2.8,0.8-4.2,0.7c-2.4-0.2-4.8-0.4-7.1-0.7c-3.8-0.5-8-1.5-10.7-4.6c-0.1-0.1-0.2-0.2-0.3-0.3c0.7,2.6,2.6,4.8,4.8,6.1
		c2.3,1.3,4.9,1.9,7.5,2c-4.3,0.7-8.9-0.9-11.9-4.3c0.4,1,0.9,2,1.5,2.9c1.4,1.9,3.3,3.8,3.3,3.8h0.1h-0.1c2.8,2.8,7,4.1,10.8,3.2
		c-1.2,0.7-2.7,1-4.1,0.9l0,0c-0.3,0-0.8-0.1-1.1-0.2c-0.3-0.1-0.7-0.2-0.7-0.2l0,0c0,0,0,0-0.1,0c0,0,0.1,0,0.1,0.1
		c0.3,0.2,1.2,0.9,2.6,1.5l0,0c2.6,1,6.5,1.7,6.6,1.7l0,0c6.4,3.7,11.8,9.4,15.3,16.3c-0.5-2.5-1.6-4.8-3.1-6.7
		c1.8,1.5,3.3,3.5,4.2,5.7c0,0,0.5-0.4,1.2-1.1l5.7-5.3H61C57.2,63,53.1,61.7,49,61.7 M59.7,41.5c-0.1-3.7-0.8-7.6-0.9-8.2
		c-0.1-0.6-0.7-4.5-1.8-8.1c0.1,3.7,0.8,7.6,0.9,8.2C58,34,58.6,37.9,59.7,41.5 M75,40.4c-0.4,0-0.7-0.3-0.7-0.7S74.6,39,75,39
		s0.7,0.3,0.7,0.7C75.7,40.1,75.4,40.4,75,40.4 M90.9,47.1c2.6-0.1,5.2-0.6,7.5-2c2.2-1.3,4.1-3.4,4.8-6.1c-0.1,0.1-0.2,0.2-0.3,0.3
		c-2.7,3.1-6.9,4.1-10.7,4.6c-2.4,0.3-4.8,0.5-7.1,0.7c-1.4,0.1-2.9,0.2-4.2-0.7c-0.6-0.4-1-0.9-1.2-1.6c-0.5-1.9,1-3.3,2.5-3.8
		c1.3-0.5,2.7-0.6,3.9-1.3c-0.3-0.9-1.4-1-2.3-0.7c-0.8,0.3-1.6,0.8-2.5,0.9l3.8-2.6c-0.5-0.8-1.6-0.6-2.3-0.2
		c-0.7,0.5-1.3,1.2-2.2,1.5l3.1-3.5C83,32,82,32.4,81.4,33.1s-1,1.5-1.8,2.1l2.2-4.2c-0.8-0.4-1.7,0.3-2.1,1.1
		c-0.4,0.8-0.6,1.7-1.2,2.4l1.1-4.6c-0.9-0.2-1.6,0.7-1.8,1.6c-0.2,0.9-0.2,1.9-0.6,2.7v-4.8c-0.9,0-1.4,1.1-1.4,2
		c0,0.9,0.2,1.8,0,2.7l-1.1-4.6c-0.8,0.3-1.1,1.5-0.9,2.4c0.2,0.9,0.7,1.8,0.7,2.7l-2.2-4.2c-0.7,0.5-0.7,1.7-0.3,2.5s1,1.5,1.3,2.4
		l-3-3.5c-0.6,0.7-0.3,1.8,0.3,2.5s1.4,1.2,1.8,2l-3.8-2.6c-0.4,0.8,0.1,1.8,0.8,2.3s1.6,0.8,2.2,1.4l-4.2-1.5c-0.1,1.1,1,2,2,2.3
		c0.9,0.3,1.8,0.3,2.7,0.7c0.2,0.1,0.5,0,0.6-0.2c0.5-1.1,1.5-1.9,2.6-2.1c-0.9,0.3-1.7,1.1-2,2.1c-0.1,0.4-0.2,0.8-0.4,1.1
		c-0.4,0.6-1.2,0.7-2,0.7c-3.6,0.2-7.2,1.3-10.2,3.4c3.8-1.5,7.9-2.2,11.9-2c0.3,0,0.6,0,0.8,0.2c0.3,0.2,0.3,0.6,0.4,0.9
		c1,5.9,0.9,11.9-0.1,17.8c0,0.1,0,0.1,0,0.2c0,0.2-0.1,0.3-0.2,0.4c-0.2,0.3-0.7,0.4-1.1,0.4c-4.1,0.1-8.2,1.4-11.7,3.8l0,0l0,0
		l4.9,4.7l0,0c1,1,1.8,1.7,1.8,1.7c1-2.2,2.4-4.2,4.2-5.7C70,68.2,69,70.6,68.5,73c3.5-6.8,8.9-12.5,15.3-16.3l0,0
		c0,0,3.3-0.6,5.8-1.4c2.2-0.7,3.4-1.9,3.4-1.9c-0.2,0.1-0.4,0.1-0.7,0.2c-0.1,0-0.1,0-0.2,0c-0.1,0-0.3,0-0.4,0.1
		c-0.1,0-0.2,0-0.2,0c-1.5,0.1-3-0.2-4.3-0.9c3.8,0.9,8-0.3,10.8-3.2c0,0,2.2-2.1,3.5-4.1l0,0c0.5-0.8,1-1.6,1.3-2.5
		C99.8,46.2,95.2,47.9,90.9,47.1 M65.2,35.3c0.2-0.4,1.1-3,1.5-5.7c-1.3,2.3-2.1,5-2.3,5.4s-1.1,3-1.5,5.7
		C64.2,38.4,65.1,35.7,65.2,35.3 M60.7,42c0.5-5.3,0.5-9.8,0.4-10.7c0-0.8,0-6.5-0.4-11.8c-0.5,5.3-0.5,11-0.4,11.8
		C60.3,32.1,60.2,36.7,60.7,42 M61.7,41.9c1.5-5.4,2.5-10.9,2.7-16.5C62.9,30.7,62,36.3,61.7,41.9"/>
	<path class="st1" d="M83,83.4c0,0.7,0,1.3,0,2c0,0.1,0,0.2,0,0.3h0.8v-0.4c0-0.7,0-1.4,0-2.1c0-0.2,0-0.3,0.1-0.5
		c0.4-0.7,0.9-1.4,1.3-2.1c0.3-0.5,0.6-0.9,0.9-1.4c-0.3,0-0.5,0-0.8,0c-0.2,0-0.3,0.1-0.4,0.2c-0.4,0.7-0.8,1.4-1.2,2.1
		c-0.1,0.1-0.2,0.3-0.3,0.5c-0.1-0.1-0.2-0.2-0.2-0.3c-0.4-0.7-0.9-1.5-1.3-2.2c0-0.1-0.1-0.2-0.2-0.2c-0.3,0-0.6,0-0.9,0
		c0.7,1.2,1.4,2.3,2.1,3.4C83,82.9,83,83.1,83,83.4z M50.5,79.3h-0.8v6.4h0.8V79.3z M36.4,84.2c0.3,1.2,1.3,1.9,2.6,1.8
		c1.1-0.1,1.9-1.1,1.9-2.4s0-2.6,0-4c0-0.1,0-0.2,0-0.2h-0.8c0,0.1,0,0.3,0,0.4c0,1.3,0,2.5,0,3.8c0,0.9-0.6,1.6-1.3,1.6
		c-0.8,0.1-1.4-0.4-1.6-1.4c0-0.2,0-0.4,0-0.6c0-1.2,0-2.3,0-3.5v-0.3h-0.8c0,0.1,0,0.1,0,0.2c0,1.4,0,2.7,0,4.1
		C36.3,83.8,36.3,84,36.4,84.2z M66.3,90.3v0.8c2.4,0.1,27,0,29.6-0.4C94.7,90.4,67.2,90,66.3,90.3z M43.5,80.5
		c0.1,0.1,0.2,0.2,0.2,0.3c1,1.6,2,3.2,3,4.7c0.1,0.1,0.1,0.2,0.2,0.2c0.3,0,0.6,0,1,0v-6.4H47v5.2c0,0,0,0-0.1,0
		c-0.1-0.1-0.1-0.2-0.2-0.2c-1-1.6-2-3.2-3-4.7c-0.1-0.1-0.1-0.2-0.2-0.2c-0.3,0-0.6,0-0.9,0v6.5h0.8L43.5,80.5L43.5,80.5z
		 M71.1,84.8c-0.3,0.3-0.7,0.4-1.1,0.3c-0.4-0.1-0.8-0.3-1-0.7c-0.2,0.2-0.4,0.4-0.7,0.7c0.1,0.1,0.3,0.2,0.4,0.3
		c0.9,0.6,1.8,0.8,2.7,0.3c0.7-0.3,1-1,1-1.8s-0.5-1.3-1.2-1.6c-0.2-0.1-0.3-0.1-0.5-0.2s-0.5-0.2-0.7-0.3c-0.4-0.2-0.6-0.5-0.5-0.9
		c0-0.4,0.3-0.7,0.7-0.8c0.6-0.2,1.1,0,1.5,0.5c0.2-0.2,0.4-0.4,0.7-0.6c-0.2-0.2-0.4-0.4-0.6-0.5c-0.8-0.4-1.5-0.4-2.3,0
		c-0.8,0.5-1.1,1.5-0.8,2.4c0.2,0.5,0.6,0.8,1.1,1c0.4,0.2,0.9,0.3,1.3,0.5C71.6,83.6,71.7,84.4,71.1,84.8z M74.6,79.3h-0.8v6.4h0.8
		V79.3z M55,91v-0.8c-0.1,0-0.1,0-0.2,0c-3.8,0-7.5,0-11.3,0c-2.8,0-5.6,0-8.4,0.1c-2.7,0-5.5,0.1-8.2,0.2c-0.4,0-0.9,0.1-1.3,0.1
		C28,90.9,54.2,91.2,55,91z M77.7,85.8h0.9v-5.6h1.9c0-0.2,0-0.4,0-0.6c0-0.1,0-0.2,0-0.2h-4.6v0.8h1.9L77.7,85.8L77.7,85.8z
		 M64.2,82.9c0.3,0,0.5,0,0.8,0c0.1,0,0.2,0.1,0.2,0.2c0.4,0.8,0.9,1.7,1.3,2.5c0,0.1,0.1,0.2,0.2,0.2c0.3,0,0.6,0,0.9,0
		c-0.6-1-1.1-1.9-1.6-2.9c0.1,0,0.2-0.1,0.4-0.1c0.7-0.3,1.1-1,1.1-1.7c-0.1-0.9-0.5-1.5-1.3-1.6c-0.9-0.1-1.8-0.1-2.7-0.1v6.5h0.8
		L64.2,82.9L64.2,82.9z M64.2,80.1c0.5,0,1,0,1.4,0c0.7,0,1.1,0.6,0.9,1.3c-0.1,0.4-0.4,0.6-0.7,0.6c-0.5,0.1-1,0.1-1.6,0.1
		L64.2,80.1L64.2,80.1z M62,84.9h-3.2v-2h2.8V82h-2.8v-1.9h3v-0.8h-3.9v6.4h4L62,84.9L62,84.9z M59.1,92.8c1.2,0,2.1-1,2.1-2.3
		c0-1.4-0.9-2.3-2.1-2.3c-1.2,0-2.1,1-2.1,2.3S57.9,92.8,59.1,92.8z M59.1,88.8c0.9,0,1.5,0.7,1.5,1.7s-0.7,1.7-1.5,1.7
		c-0.9,0-1.5-0.8-1.5-1.7C57.6,89.6,58.2,88.8,59.1,88.8z M64.6,90.2h-1.8v-1.3h2v-0.6h-2.5v4.3h0.6v-1.9h1.8v-0.5H64.6z M77.1,98.5
		c0.1-0.1,0.2-0.1,0.3-0.2c0.2-0.3,0.5-0.5,0.6-0.8c0.3-1-0.3-2-1.3-2.1c-0.8-0.1-1.7,0-2.5,0v6.5c0.8,0,1.6,0,2.4,0
		c0.2,0,0.3-0.1,0.5-0.1c0.8-0.2,1.2-0.8,1.3-1.6c0-0.4,0-0.8-0.2-1.1C77.8,98.8,77.5,98.6,77.1,98.5z M75,96.2c0.5,0,1,0,1.5,0
		s0.7,0.4,0.7,0.9S77,98,76.5,98c-0.5,0.1-1,0-1.5,0V96.2z M76.7,101c-0.5,0.1-1.1,0.1-1.7,0.2V99c0.5,0,1.1,0,1.6,0
		c0.5,0.1,0.8,0.5,0.8,1C77.4,100.4,77.2,100.9,76.7,101z M64.6,98.9h2.8v-0.8h-2.8v-1.9h3v-0.8h-3.8v6.5h4V101h-3.2V98.9z
		 M71.8,98.5c-0.5-0.2-1-0.4-1.5-0.6s-0.7-0.6-0.6-1c0.1-0.4,0.4-0.7,0.8-0.8c0.6-0.1,1,0.1,1.4,0.6c0.2-0.2,0.4-0.4,0.7-0.7
		c-0.1-0.1-0.1-0.1-0.1-0.2c-0.6-0.6-1.4-0.7-2.2-0.5s-1.4,0.8-1.4,1.6c-0.1,0.9,0.3,1.5,1.1,1.9c0.3,0.1,0.5,0.2,0.8,0.3
		c0.2,0.1,0.4,0.2,0.6,0.3c0.5,0.3,0.6,0.9,0.2,1.3c-0.2,0.2-0.5,0.3-0.7,0.4c-0.6,0.1-1.1-0.1-1.5-0.6c-0.2,0.2-0.5,0.4-0.7,0.6
		c0.1,0.1,0.1,0.1,0.1,0.2s0.1,0.1,0.1,0.1c0.7,0.6,1.4,0.7,2.2,0.5c1-0.2,1.6-1,1.5-2.2C72.6,99.1,72.3,98.7,71.8,98.5z M84.2,95.4
		h-0.8c0,1.3,0,2.6,0,3.9c0,0.2,0,0.5-0.1,0.7c-0.2,0.8-0.7,1.2-1.4,1.2s-1.3-0.4-1.4-1.1c-0.1-0.3-0.1-0.5-0.1-0.8
		c0-1.2,0-2.3,0-3.5v-0.3h-0.8v0.3c0,1.3,0,2.5,0,3.8c0,1.4,0.9,2.4,2.2,2.5c1.4,0.1,2.4-0.8,2.5-2.3c0.1-1.4,0-2.8,0-4.2
		C84.2,95.5,84.2,95.4,84.2,95.4z M96.3,98.9v-0.6h-2.1v0.8h1.3c0,0.5,0,1,0,1.6c0,0.2-0.1,0.3-0.2,0.4c-0.3,0.1-0.6,0.1-0.9,0.2
		c-1.6,0.1-2.8-1.1-2.6-2.9c0.1-1.3,1.1-2.3,2.4-2.2c0.6,0,1.1,0.3,1.5,0.7c0.2-0.2,0.4-0.4,0.6-0.7c-0.2-0.1-0.3-0.3-0.5-0.4
		c-0.6-0.4-1.3-0.4-2-0.4c-1.4,0-2.5,1-2.8,2.5c-0.3,1.6,0.3,3.2,1.5,3.8c1.3,0.6,2.5,0.5,3.7-0.1c0.1,0,0.1-0.2,0.1-0.3
		C96.3,100.4,96.3,99.6,96.3,98.9z M28.3,95.4h-0.8v0.4c0,1.3,0,2.6,0,3.9c0,0.3,0,0.5-0.1,0.8c-0.1,0.6-0.5,0.8-1,0.7
		c-0.4-0.1-0.6-0.4-0.7-0.8c-0.3,0.1-0.5,0.2-0.8,0.2c0.1,0.7,0.5,1.2,1.1,1.3c1.3,0.4,2.3-0.5,2.3-1.9c0-1.5,0-2.9,0-4.4
		C28.4,95.6,28.4,95.5,28.3,95.4z M89.7,97.9c0.5-1.2-0.3-2.4-1.5-2.5c-0.7,0-1.4,0-2.2,0c-0.1,0-0.1,0-0.2,0v6.4h0.8V99
		c0.2,0,0.4,0,0.7,0c0.2,0,0.3,0.1,0.4,0.2c0.4,0.8,0.9,1.6,1.3,2.5c0,0.1,0.1,0.2,0.2,0.2c0.3,0,0.6,0,0.9,0c-0.6-1-1.1-2-1.6-3
		C89,98.8,89.5,98.4,89.7,97.9z M86.7,98.2v-2.1c0.6,0,1.2-0.1,1.8,0.2c0.4,0.2,0.5,0.5,0.5,0.9s-0.2,0.7-0.5,0.9
		c-0.2,0.1-0.3,0.1-0.5,0.1C87.6,98.2,87.1,98.2,86.7,98.2z M46.4,95.6c-0.1-0.2-0.2-0.3-0.4-0.3s-0.5-0.1-0.6,0.3
		c-0.7,1.7-1.4,3.4-2.1,5.1c-0.2,0.4-0.3,0.7-0.5,1.1c0.3,0,0.5,0,0.8,0c0.1,0,0.2-0.1,0.3-0.2c0.2-0.4,0.3-0.8,0.5-1.2
		c0-0.1,0.2-0.2,0.2-0.2c0.8,0,1.7,0,2.5,0c0.2,0,0.2,0.1,0.3,0.2c0.1,0.4,0.3,0.8,0.4,1.2c0,0.1,0.1,0.2,0.2,0.2c0.3,0,0.6,0,0.9,0
		c-0.1-0.1-0.1-0.2-0.1-0.4C48,99.6,47.2,97.6,46.4,95.6z M44.8,99.5c0.4-1,0.7-1.9,1.1-2.9c0.4,1,0.7,2,1.1,2.9H44.8z M61.2,100.6
		c-0.1-0.1-0.1-0.2-0.2-0.3c-1-1.6-2-3.1-3-4.7c-0.1-0.1-0.2-0.2-0.3-0.2c-0.3,0-0.6,0-0.9,0v6.5h0.8v-5.2c0.1,0.1,0.2,0.2,0.2,0.3
		c1,1.6,2,3.1,3,4.7c0.1,0.1,0.2,0.2,0.2,0.2c0.3,0,0.6,0,0.9,0v-6.5h-0.8v5.2H61.2z M32.7,95.3c-1.8,0-3.2,1.4-3.2,3.3
		s1.4,3.4,3.2,3.4s3.1-1.4,3.1-3.4C35.9,96.7,34.6,95.3,32.7,95.3z M33.7,100.9c-0.9,0.4-1.7,0.3-2.5-0.4c-0.8-0.8-1-2.3-0.4-3.4
		c0.6-1,1.7-1.4,2.7-1c0.9,0.4,1.5,1.3,1.5,2.5C35,99.6,34.6,100.5,33.7,100.9z M41.2,98h-3.1v-2.6h-0.8v6.5h0.8v-3h3.1v3H42v-6.5
		h-0.8V98z M56,79.3c-0.6,1.7-1.2,3.4-1.8,5.2c0-0.1-0.1-0.2-0.1-0.3c-0.5-1.4-0.9-2.8-1.4-4.1c-0.3-0.8-0.3-0.8-1.1-0.8
		c0,0,0,0-0.1,0c0,0.1,0.1,0.2,0.1,0.3c0.7,1.9,1.4,3.8,2,5.6c0.2,0.6,0.1,0.5,0.7,0.5c0.2,0,0.3-0.1,0.4-0.3
		c0.7-1.9,1.4-3.8,2.1-5.7c0-0.1,0.1-0.3,0.1-0.4C56.9,79.3,56,79.3,56,79.3z M54.2,100.6c-0.1-0.2-0.2-0.2-0.2-0.3
		c-1-1.5-1.9-3.1-2.9-4.6c-0.1-0.1-0.1-0.2-0.2-0.2c-0.4,0-0.7,0-1,0v6.5h0.8v-5.2c0.1,0.2,0.2,0.2,0.2,0.3c1,1.6,2,3.1,3,4.7
		c0.1,0.1,0.2,0.2,0.3,0.2c0.3,0,0.6,0,0.9,0v-6.5h-0.9L54.2,100.6L54.2,100.6z"/>
</g>
</svg>
